<svg id="Layer_1" data-name="Layer 1" xmlns="http://www.w3.org/2000/svg" viewBox="0 0 1006.4 371.58"><defs><style>.cls-1,.cls-8{fill:#e52129;}.cls-1,.cls-2,.cls-3,.cls-4,.cls-5,.cls-6,.cls-7,.cls-8{stroke:#fff;stroke-miterlimit:10;}.cls-1,.cls-2,.cls-3,.cls-4,.cls-5,.cls-7{stroke-width:5px;}.cls-2{fill:#f29094;}.cls-3{fill:#faddde;}.cls-4{fill:#2f318a;}.cls-5{fill:#f6bcbf;}.cls-6{font-size:231.35px;stroke-width:6px;}.cls-6,.cls-7{font-family:Arial-Black, Arial;font-weight:800;}.cls-7{font-size:106.04px;}.cls-8{stroke-width:2px;}</style></defs><title>Logo REKA</title><path class="cls-1" d="M220.43,33.86C194.1,36,168.34,41.12,144.58,52.93c-19.82,9.85-30,27-31.44,49.05a70.5,70.5,0,0,0,10.25,41.67c1,1.68.86,2.5-.79,3.6q-25.39,17-50.67,34.22c-1.24.84-2.24,1.36-3.74.25C51.82,169.64,39,154.94,33.26,134.92c-.7-2.4-.18-5.2-2.16-7.21V108.17c1.16-2.17.59-4.64,1.23-7,4.92-17.68,15.28-31.61,29.31-43.06C81.51,42,104.58,32.9,129.43,27.75c7.31-1.51,14.73-2,22.11-2.91h3.91a42.52,42.52,0,0,0,11.71,0h1.31c1.66.88,3.54-.16,5.21.61,13.9,1.2,27.82,2.27,41.5,5.24,2.63.57,5.22,1.36,7.84,2C222.75,34.47,221.14,33.12,220.43,33.86Z" transform="translate(-28.6 -3.42)"/><path class="cls-2" d="M167.16,24.84a21.57,21.57,0,0,1-11.71,0Z" transform="translate(-28.6 -3.42)"/><path class="cls-3" d="M173.68,25.45c-1.75,0-3.61.73-5.21-.61h5.2C173.68,25,173.68,25.24,173.68,25.45Z" transform="translate(-28.6 -3.42)"/><path class="cls-1" d="M225.22,99.87c17.25,7.92,29,3,35.18-4.21,11.38-13.24,9.52-27.2,1.17-41.74,4.7,1.55,9.22,2.86,12.65,5.72,15.74,13.1,27,29.07,29.68,49.92,2.84,22.07-4.89,40.74-19.45,56.88C269.31,183.24,250.22,194,229,201c-37.91,12.55-76.21,13.08-114.68,2.48-1-.28-2.17-.28-3.15-1.46,9.15-1.77,18.13-3.52,27.11-5.23,15.23-2.9,30.59-5.21,45.64-8.8,20.06-4.79,34.2-17.37,42.52-36.15C234.12,134.62,233.4,117.33,225.22,99.87Z" transform="translate(-28.6 -3.42)"/><path class="cls-4" d="M202.33,92.85c-9,6.05-17.93,11.57-26.29,17.89-11.92,9-24.63,16.8-36.81,25.41-1.24.88-2.37,2-3.2-.53-8.56-26.65,8.59-54.34,36-55.56C184,79.53,193.94,84,202.33,92.85Z" transform="translate(-28.6 -3.42)"/><path class="cls-4" d="M177.26,163.1c-12.19,0-19.71-2.59-26.56-7.42-2-1.4-2.08-2.09.05-3.51q27.52-18.45,54.93-37.1c1.49-1,3.14-1.8,4.28-3.37.65-.89,1.63-1.83,2.24.52C218.71,137.47,199.22,163.15,177.26,163.1Z" transform="translate(-28.6 -3.42)"/><path class="cls-1" d="M238.41,55.5c10.75,0,19.74,9.09,19.75,20.06a19.68,19.68,0,1,1-39.36.17C218.61,64.92,227.69,55.55,238.41,55.5Z" transform="translate(-28.6 -3.42)"/><path class="cls-5" d="M220.43,33.86c.71-.72,2-.18,2.59-1.13.3.05.71,0,.89.16a.51.51,0,0,1-.29.92C222.56,33.91,221.5,33.85,220.43,33.86Z" transform="translate(-28.6 -3.42)"/><text class="cls-6" transform="translate(265.43 201.48) scale(1.02 1)">REKA</text><text class="cls-7" transform="translate(275.72 309.13) scale(0.92 1)">INKA</text><path class="cls-8" d="M805.37,273.58c-1.37-.92-1.36-1.36-.59-2.62a2.68,2.68,0,0,0-1.45-4.17c-5.7-2.1-11-5.27-17.78-2.3-4.54,2-10,2.18-14.2,5.1-3.56,2.47-7.69,3.78-11.16,6.44-2.24,1.72-4.34,4-6.8,5-4.74,1.94-8,5.68-11.77,8.66a82.85,82.85,0,0,1-20.08,11.93c-2.9,1.19-5.86,2.46-9.09,2.25-1-.07-3.12.25-2.23-1.92a46.54,46.54,0,0,1,5.25-9.58,55.61,55.61,0,0,1,9.22-9.9,6.38,6.38,0,0,0,2.11-7.91c-1.14-2.95-2.52-5.83-3.41-8.86-1.31-4.4-3.36-5.92-7.89-5.28a14.28,14.28,0,0,0-6.77,3.24c-5.42,4.16-10.12,9.62-17.6,10.29a2.86,2.86,0,0,0-1.11.59c-7,4.52-15.33,7-21.51,12.92-.37.34-.88.67-1.41.26s-.2-1,0-1.4c.86-1.57,2.08-3,2.59-4.7,2.32-7.53,6.88-13.95,10.19-21,4.27-9,4.11-12.31-2.41-18.37-2.26-2.1-5-1.79-6.89.69-4.38,5.76-8.76,11.54-13,17.41a134.05,134.05,0,0,1-10.56,12.5c-2.68,2.87-5.77,5.63-8.46,8.61-3.07,3.41-7.45,5.69-9.09,10.35-3.92.44-4.87,4.85-8.57,6.1-4.2,1.42-7.27,5.35-11.57,7.05-2.4.95-3.92.25-3.78-2.28.17-3.2.22-6.69,1.53-9.49,3.78-8.07,6.84-16.56,12.55-23.61.66-.81,1.58-1.84,1.52-2.7-.12-1.83,1.09-2.5,2.06-3.57,5.24-5.78,10.57-11.49,15.52-17.52,2.66-3.22,5.24-6.4,8.71-8.77,2.89-2,5.66-4.11,8.59-6,8.09-5.26,15.14-12.35,25.09-14.37,1.31-.27,2.79-1.18,3.81.17s-.11,2.52-.88,3.42c-1.77,2.09-3.87,3.89-5.6,6-1.38,1.67-2.5,3.71-.32,5.59a4.46,4.46,0,0,0,6.8-1.21c1.18-2.1,1.9-4.46,3-6.61,2.69-5.17,1.27-9.87-1.44-14.46a2.55,2.55,0,0,0-1.73-1.31c-3.46-.57-7-1-10.42,0-8.7,2.52-16.19,7.52-23.88,12a82.2,82.2,0,0,0-13.6,9.83c-2.5,2.25-5.7,4-7.49,6.68a52.83,52.83,0,0,1-6.74,7.77,74.53,74.53,0,0,0-14.83,21.42c-.83,1.78-1.32,4.16-2.83,5.34-3.6,2.82-6,5.83-4.61,10.69.12.42-.17,1.36-.43,1.43-4.11,1.12-4.14,5.15-4.79,7.93-1.21,5.12-2.06,10.61,3,14.87,2.81,2.36,5.95,3.44,9.31,4.62,5.17,1.82,9.65.75,13.74-2.11,4.33-3,7.27-7.71,11.65-10.71,2.89-2,4.83-4.8,7.17-7.24,2.64-2.74,6.4-4.73,6.86-9.16a1.55,1.55,0,0,1,1.11-1c2.57-.2,3.68-2.27,5.1-3.89,2.65-3,6.31-4.67,9.31-7.29-.47,3.38-2.91,5.73-4.12,8.7-2.32,5.66-5.23,11.09-8,16.58-.46.94-.2,2.23-1.2,2.87-4.77,3-8.16,7.68-12.58,11.06a76.61,76.61,0,0,0-15.46,16.45,12.74,12.74,0,0,1-3.57,3.56,3.89,3.89,0,0,0-1.84,1.66c-2.08,4.81-5.13,9.11-7.31,13.89-2,4.29-4.2,8.14-4.73,13.16-.72,7,1.13,12.26,6.29,16.67h3.18c.68-.45,1.33-1.23,2.06-1.31,4.78-.56,7.28-4.42,9.72-7.55a285.77,285.77,0,0,0,16.88-23.51,5.75,5.75,0,0,0,.71-1.74c1-4.3,3.83-7.74,6.1-11.32,3-4.77,3.66-10.43,6.83-15.21,1.71-2.58,2.56-6.28,3.8-9.44a14,14,0,0,1,7.21-8.1,72.57,72.57,0,0,0,8.61-4.71c1.33-.83,2.09-2.13,3.62-.07.68.92,2.38.23,3.45-.62a12.14,12.14,0,0,1,2.21-1.75A94.57,94.57,0,0,0,699,280.08c3.28-2.35,7.08-3.75,10.36-6,1-.72,1.82-1.59,3-.51s.69,2,0,3.14c-3.29,5.64-7,11-10.14,16.76-2.85,5.25-2.9,11,.69,16.11,2.22,3.18,9.46,5.78,13.61,4.08s9.64-1.8,11.88-7a.62.62,0,0,1,.55-.22c2.48.5,4.12-1.76,5.63-2.67A72,72,0,0,0,747.81,294a62.28,62.28,0,0,1,12-9.35c-1,4.16-2.08,7.62-2.79,11.17-.57,2.88-.92,5.5.52,8.19,2.36,4.39,6.32,7,10.43,9.39,1.11.65,2.21,1.61,3.76,1.49a47,47,0,0,0,15.49-4.15c2.32-1,4.14-2.9,6.44-3.63a15.69,15.69,0,0,0,8.2-6c2.95-4.29,6.35-8.39,7.51-13.84C810.2,283.33,808.66,275.8,805.37,273.58ZM645.15,312.07c-3.53,3.58-4.29,8.67-6.77,12.6-2,3.2-2.23,7.87-6.34,9.73-2.13,6-7,10.77-8.13,17.25-.4,2.33-2.75,2.78-3.62,4.78a18.62,18.62,0,0,1-6.61,7.53c-.63.43-1.3,1.33-2.21.64-.63-.48-.5-1.29-.52-2.05-.14-7,1.9-13.19,5.19-19.41a146.12,146.12,0,0,1,8.49-14.73c.18-.26.27-.75.47-.8,4.54-1.08,4.6-7.19,9.29-8.18,1.78-.37,1.75-2.68,3.36-3.82,2.33-1.64,5-3,6.93-5.07C645.21,311.06,645.5,311.71,645.15,312.07Zm152.68-24c-2,4.81-4.53,9.28-9,12.27-1.69,1.12-2.58,3-4.39,4.11-3.47,2.16-6.66,4.35-11.16,4-3.74-.27-4-2.69-4.4-5.26-.32-2,1.09-4.17-.57-6.08-.11-.13.07-.6.22-.85,3.19-5.19,5.89-10.7,10.19-15.17,1.11-1.14,2.7-1,3.82-2.11,4.3-4.21,10.93-2.38,15.77-7.11-.43,2.69-1.89,3-2.69,3.92-2.06,2.33-2.05,5.19.56,6.81C798.53,284.06,798.66,286,797.83,288Z" transform="translate(-28.6 -3.42)"/><path class="cls-8" d="M1014.61,277.05c-.86-.79-1.85-.41-2.69-.06a13.09,13.09,0,0,0-3,1.7c-6.86,5.22-14,10-22,13.34-.5.47-1.24.22-1.77.59,0-.5.31-.94.36-1.43,5.53-4.67,7.13-11.1,7.92-17.87.55-4.67-3.6-9.33-8.18-9.35-1.12,0-2.26.17-3.33.24-3.2.21-6.6.18-9.45,2-4.12,2.64-8.11,5.46-12.37,7.9A49.16,49.16,0,0,0,948.6,283a16.11,16.11,0,0,1,0-2.6c.71-3.2,1.61-6.37,2.17-9.59s-1.45-6.57-4.75-8.27c-2.49-1.28-4.66,0-5.87,1.74-5,7-12.32,11.21-19.39,15.47-5.52,3.32-10.38,7.45-15.61,11.12-3.55,2.49-6.4,6-10.66,7.48-.75.26-1.46,1.22-2.17.24a1.57,1.57,0,0,1,.35-2.26,3.71,3.71,0,0,0,1.15-2.54,39.81,39.81,0,0,1,4.34-11.51c3.7-6.52,3.6-6.65-2-11.65l-.23-.22c-3.47-3.17-7.18-3.47-10.86-.66a131,131,0,0,0-11.47,9.47c-2,1.91-3.72,4.11-6.16,5.66a82.12,82.12,0,0,0-7.92,5.73,152,152,0,0,1-13.84,9.7c-1.37.89-2.15.27-1.87-1.13.86-4.31,2.63-8.59,5.67-11.46,3.24-3.06,4.18-7.25,6.89-10.5,1.67-2-4.57-10.17-7.39-9.74-3.27.51-6.89.77-9.39,3.31s-5.71,3.23-8.35,5.25c-1,.74-1.72,2.44-2.77,2.25-3.09-.53-4.2,1.65-5.39,3.53s-2.37,4.38-.77,6.31c1.75,2.1,3.52,0,5.24-.94,3.09-1.63,5.94-3.83,9.59-4.4-2.31,3.41-4.08,7-6.22,10.35-1.31,2-1.83,4.41-.94,6.36,2,4.34,4.48,8.5,9.17,10.51,2.34,1,4.91,2,7.28.31,4.3-3,8.58-6.05,12.64-9.37,4.43-3.64,8.42-7.81,13.48-10.67.71-.4,1.18-1.19,1.86-1.67a50.39,50.39,0,0,0,6.93-6.15c.08,4.86-1.57,8.46-2.6,12.21-.65,2.36-1.6,5.09-.11,7.23a41.72,41.72,0,0,0,6.86,7.46c1.91,1.65,3.61,1.33,5.43,0,4.74-3.43,9.11-7.28,14.57-9.81,5-2.35,8.49-7.17,13.43-10.12,3.2-1.91,7.12-3.7,9.33-7.26.14-.24.79-.33,1.15-.25,1.88.41,2.77-.42,3.06-2.21.21-1.32.94-2.2,2.38-1.84,1.78.46.76,1.75.48,2.57-1.93,5.68-4,11.32-6,17-1.79,5.17-3.72,10-8.19,13.84a41.38,41.38,0,0,0-7.84,9.61c-2.24,3.61-5.64,6.49-7.71,10.34-2.17,4.06-5.69,7.2-7.55,11.56-3.16,7.44-3.79,14.45,1.94,21,1.66,1.89,3.55,3,6.14,1.86a20.94,20.94,0,0,0,10.49-9.76c2.72-5.34,5.1-10.85,8-16.1,3.18-5.71,4.2-12.37,7.68-17.91a61,61,0,0,0,5-10.87c.5-1.31.79-2.91,2.29-3.14s2.37,1.07,3.2,2.24c1.25,1.77,3.12,3.81,5.06,3.35,4.93-1.18,10.2-.52,14.9-3,3.1-1.65,6.77-1.6,10.06-3.11s7.28-.87,9.44-4.54a1.32,1.32,0,0,1,1.39-.57c2.27.26,3.69-1.3,5.34-2.42,2.7-1.82,5.45-3.58,8.17-5.38,3-2,6.84-3,9.22-5.87,2.57-3.1,8.35-3.34,8-9.07C1014.42,278.78,1015.59,278,1014.61,277.05ZM902.77,354.26c.11-5.11.32-9.35,2.62-13.05,1.2-1.92.43-4.49,2.56-6.07,2.39-1.78,3.42-4.46,4.57-7.22a15.33,15.33,0,0,1,7.41-7.6C915.67,332.69,911.42,344.05,902.77,354.26Zm78-76.5c-2.39,6.25-7.47,10.39-11.67,15.22a20.11,20.11,0,0,1-5.68,4.34c-2.18,1.21-4,2-6.81.45-3.28-1.82-7.16-.42-10.55,1.17a29.87,29.87,0,0,0-3.57,2.38c-.61-3.85,1.93-6,3.61-8,5.07-6.08,11.76-10.53,18.22-14.94,3.14-2.15,7.56-2.69,11.2-4.6,1.11-.59,3,.05,4.44.26S981.35,276.12,980.73,277.76Z" transform="translate(-28.6 -3.42)"/></svg>